<svg width="134" height="134" viewBox="0 0 134 134" fill="none" xmlns="http://www.w3.org/2000/svg">
<ellipse cx="67" cy="60.5" rx="54" ry="53.5" fill="url(#paint0_linear_1071_1811)" fill-opacity="0.3"/>
<path d="M67.0172 105.27C91.7727 105.27 111.841 85.326 111.841 60.7242C111.841 36.1224 91.7727 16.1787 67.0172 16.1787C42.2617 16.1787 22.1934 36.1224 22.1934 60.7242C22.1934 85.326 42.2617 105.27 67.0172 105.27Z" fill="url(#paint1_linear_1071_1811)"/>
<path d="M67.0195 63.355C74.3136 63.355 80.2265 57.4787 80.2265 50.23C80.2265 42.9812 74.3136 37.105 67.0195 37.105C59.7255 37.105 53.8125 42.9812 53.8125 50.23C53.8125 57.4787 59.7255 63.355 67.0195 63.355Z" stroke="white" stroke-width="5" stroke-linecap="round" stroke-linejoin="round"/>
<path d="M88.1511 84.355C88.1511 78.7854 85.9248 73.444 81.9619 69.5057C77.9991 65.5675 72.6243 63.355 67.0199 63.355C61.4156 63.355 56.0407 65.5675 52.0779 69.5057C48.115 73.444 45.8887 78.7854 45.8887 84.355" stroke="white" stroke-width="5" stroke-linecap="round" stroke-linejoin="round"/>
<path d="M98.8503 44.051C99.4041 44.051 99.853 43.6049 99.853 43.0546C99.853 42.5042 99.4041 42.0581 98.8503 42.0581C98.2966 42.0581 97.8477 42.5042 97.8477 43.0546C97.8477 43.6049 98.2966 44.051 98.8503 44.051Z" fill="white" fill-opacity="0.2"/>
<path d="M103.362 56.8371C103.916 56.8371 104.365 56.391 104.365 55.8407C104.365 55.2904 103.916 54.8442 103.362 54.8442C102.808 54.8442 102.359 55.2904 102.359 55.8407C102.359 56.391 102.808 56.8371 103.362 56.8371Z" fill="white" fill-opacity="0.2"/>
<path d="M32.5144 47.5378C33.0682 47.5378 33.5171 47.0917 33.5171 46.5414C33.5171 45.991 33.0682 45.5449 32.5144 45.5449C31.9606 45.5449 31.5117 45.991 31.5117 46.5414C31.5117 47.0917 31.9606 47.5378 32.5144 47.5378Z" fill="white" fill-opacity="0.2"/>
<path d="M43.5163 56.801C44.0701 56.801 44.519 56.3549 44.519 55.8046C44.519 55.2542 44.0701 54.8081 43.5163 54.8081C42.9626 54.8081 42.5137 55.2542 42.5137 55.8046C42.5137 56.3549 42.9626 56.801 43.5163 56.801Z" fill="white" fill-opacity="0.2"/>
<path d="M32.5144 81.7458C33.0682 81.7458 33.5171 81.2997 33.5171 80.7494C33.5171 80.1991 33.0682 79.7529 32.5144 79.7529C31.9606 79.7529 31.5117 80.1991 31.5117 80.7494C31.5117 81.2997 31.9606 81.7458 32.5144 81.7458Z" fill="white" fill-opacity="0.2"/>
<path d="M98.6843 81.7458C99.2381 81.7458 99.687 81.2997 99.687 80.7494C99.687 80.1991 99.2381 79.7529 98.6843 79.7529C98.1306 79.7529 97.6816 80.1991 97.6816 80.7494C97.6816 81.2997 98.1306 81.7458 98.6843 81.7458Z" fill="white" fill-opacity="0.2"/>
<path d="M88.6843 56.801C89.2381 56.801 89.687 56.3549 89.687 55.8046C89.687 55.2542 89.2381 54.8081 88.6843 54.8081C88.1306 54.8081 87.6816 55.2542 87.6816 55.8046C87.6816 56.3549 88.1306 56.801 88.6843 56.801Z" fill="white" fill-opacity="0.2"/>
<path d="M67 93C76.3888 93 84 100.611 84 110C84 119.389 76.3888 127 67 127C57.6112 127 50 119.389 50 110C50 100.611 57.6112 93 67 93Z" fill="#4C36E4" stroke="white" stroke-width="2"/>
<path d="M65.4187 115C65.2188 115 65.0217 114.961 64.8429 114.887C64.6641 114.812 64.5085 114.704 64.3884 114.571L61.2308 111.067C61.0401 110.839 60.9633 110.558 61.0164 110.283C61.0696 110.008 61.2486 109.762 61.5158 109.595C61.7829 109.428 62.1174 109.354 62.4486 109.389C62.7798 109.424 63.082 109.564 63.2913 109.781L65.3577 112.074L70.6648 105.448C70.8593 105.222 71.1516 105.068 71.4802 105.018C71.8087 104.967 72.1478 105.026 72.4258 105.18C72.7038 105.334 72.899 105.572 72.9703 105.844C73.0416 106.116 72.9834 106.4 72.8079 106.637L66.4911 114.523C66.3767 114.666 66.223 114.783 66.0427 114.866C65.8625 114.949 65.661 114.995 65.4552 115L65.4187 115Z" fill="white"/>
<defs>
<linearGradient id="paint0_linear_1071_1811" x1="13.1052" y1="6.98501" x2="140.149" y2="119.79" gradientUnits="userSpaceOnUse">
<stop stop-color="#80DCE4"/>
<stop offset="0.5" stop-color="#AB9AEF"/>
<stop offset="1" stop-color="#E78FD6"/>
</linearGradient>
<linearGradient id="paint1_linear_1071_1811" x1="30" y1="16" x2="114.5" y2="109" gradientUnits="userSpaceOnUse">
<stop stop-color="#01BBC9"/>
<stop offset="0.5" stop-color="#4C36E4"/>
<stop offset="1" stop-color="#CF20AE"/>
</linearGradient>
</defs>
</svg>
