<svg width="484" height="232" viewBox="0 0 484 232" fill="none" xmlns="http://www.w3.org/2000/svg">
<g clip-path="url(#clip0_180_233)">
<rect width="484" height="232" rx="20" fill="url(#paint0_linear_180_233)"/>
<path d="M166.761 -42C202.226 -42 233.073 -22.2272 248.881 6.89551C251.313 5.46173 253.904 4.68557 256.595 4.68555C270.576 4.68555 281.91 25.5883 281.91 51.373C281.91 77.158 270.576 98.0615 256.595 98.0615C253.905 98.0615 251.314 97.2842 248.882 95.8506C239.37 113.376 224.412 127.516 206.277 135.999L228.194 207L172.106 144.598C170.735 144.675 169.355 144.726 167.968 144.743L166.761 144.751H-17.7832L-18.9893 144.743C-55.5753 144.28 -87.0904 122.775 -101.99 91.7734C-105.722 95.7709 -110.058 98.0615 -114.685 98.0615C-128.666 98.0614 -140 77.1579 -140 51.373C-140 25.5884 -128.666 4.68565 -114.685 4.68555C-110.058 4.68555 -105.721 6.97583 -101.989 10.9736C-86.9253 -20.3661 -54.8805 -41.9997 -17.7832 -42H166.761ZM-17.7822 0.192383C-46.0495 0.192505 -68.9656 23.1077 -68.9658 51.375C-68.9658 79.6424 -46.0504 102.558 -17.7832 102.559H166.761C195.028 102.559 217.943 79.6425 217.943 51.375C217.943 23.1076 195.028 0.192383 166.761 0.192383H-17.7822ZM40.3604 21.1377C54.3417 21.1377 65.6757 32.4718 65.6758 46.4531C65.6758 60.4345 54.3417 71.7686 40.3604 71.7686C26.379 71.7685 15.0449 60.4345 15.0449 46.4531C15.045 32.4718 26.3791 21.1377 40.3604 21.1377ZM160.967 21.1377C174.948 21.1377 186.282 32.4718 186.282 46.4531C186.282 60.4345 174.948 71.7686 160.967 71.7686C146.985 71.7685 135.651 60.4345 135.651 46.4531C135.651 32.4718 146.986 21.1378 160.967 21.1377Z" fill="white"/>
<rect x="402.942" y="179" width="42.058" height="24" rx="12" stroke="white" stroke-width="2"/>
<line x1="411.856" y1="186.685" x2="411.856" y2="194.441" stroke="white" stroke-width="2.2029" stroke-linecap="round"/>
<path d="M431.428 185.589C433.173 185.677 434.676 186.685 435.464 188.137C435.591 188.062 435.727 188.022 435.867 188.021C436.597 188.021 437.189 189.113 437.189 190.459C437.189 191.805 436.597 192.896 435.867 192.896C435.726 192.896 435.59 192.854 435.462 192.777C434.965 193.692 434.187 194.432 433.24 194.875L434.385 198.584L431.455 195.324C431.446 195.325 431.437 195.327 431.428 195.327L431.178 195.333H421.542C419.604 195.333 417.931 194.203 417.145 192.565C416.95 192.775 416.724 192.896 416.482 192.896C415.753 192.896 415.161 191.805 415.161 190.459C415.161 189.113 415.753 188.022 416.482 188.021C416.724 188.021 416.95 188.142 417.145 188.351C417.931 186.713 419.605 185.583 421.542 185.583H431.178L431.428 185.589ZM421.542 187.786C420.066 187.786 418.87 188.982 418.87 190.458C418.87 191.934 420.066 193.131 421.542 193.131H431.178C432.653 193.131 433.85 191.934 433.85 190.458C433.849 188.983 432.653 187.786 431.178 187.786H421.542ZM423.533 188.88C424.263 188.88 424.855 189.471 424.855 190.201C424.855 190.931 424.263 191.523 423.533 191.523C422.803 191.523 422.212 190.931 422.212 190.201C422.212 189.472 422.804 188.88 423.533 188.88ZM429.83 188.88C430.56 188.88 431.152 189.472 431.152 190.202C431.152 190.932 430.56 191.523 429.83 191.523C429.1 191.523 428.509 190.932 428.509 190.202C428.509 189.472 429.1 188.88 429.83 188.88Z" fill="white"/>
<path d="M304.055 184.484C305.269 184.484 306.354 185.183 306.851 186.287L311.725 197.25H308.929L307.807 194.693H297.672L296.532 197.25H293.736L295.207 193.957C295.704 192.854 296.789 192.155 297.985 192.155H306.667L304.588 187.483C304.46 187.207 304.184 187.041 303.889 187.041H301.572C301.277 187.041 301.001 187.207 300.891 187.483L299.64 190.279H296.844L298.629 186.287C299.107 185.183 300.211 184.484 301.406 184.484H304.055ZM325.517 189.101C331.55 189.101 331.568 197.268 325.517 197.268H312.861V194.712H325.517C327.614 194.712 327.558 191.658 325.517 191.658H316.393C310.948 191.658 310.967 184.503 316.393 184.503H328.754V187.06H316.393C314.958 187.06 314.903 189.101 316.393 189.101H325.517ZM344.737 189.101C350.77 189.101 350.789 197.268 344.737 197.268H332.082V194.712H344.737C346.834 194.712 346.779 191.658 344.737 191.658H335.614C330.169 191.658 330.187 184.503 335.614 184.503H347.975V187.06H335.614C334.179 187.06 334.124 189.101 335.614 189.101H344.737ZM350.751 184.503H358.255V187.06H355.938V194.712H358.255V197.268H350.751V194.712H353.087V187.06H350.751V184.503ZM372.939 189.101C378.972 189.101 378.991 197.268 372.939 197.268H360.284V194.712H372.939C375.036 194.712 374.981 191.658 372.939 191.658H363.816C358.371 191.658 358.389 184.503 363.816 184.503H376.177V187.06H363.816C362.381 187.06 362.326 189.101 363.816 189.101H372.939ZM377.857 184.484H392.517V187.023H386.613V197.268H383.761V187.023H377.857V184.484Z" fill="white"/>
</g>
<defs>
<linearGradient id="paint0_linear_180_233" x1="0" y1="0" x2="484" y2="232" gradientUnits="userSpaceOnUse">
<stop stop-color="#00BCC9"/>
<stop offset="0.5" stop-color="#4C36E4"/>
<stop offset="1" stop-color="#CF20AE"/>
</linearGradient>
<clipPath id="clip0_180_233">
<rect width="484" height="232" rx="20" fill="white"/>
</clipPath>
</defs>
</svg>
