<svg width="80" height="80" viewBox="0 0 80 80" fill="none" xmlns="http://www.w3.org/2000/svg">
<path d="M40 80C62.0914 80 80 62.0914 80 40C80 17.9086 62.0914 0 40 0C17.9086 0 0 17.9086 0 40C0 62.0914 17.9086 80 40 80Z" fill="#F6F7F9"/>
<path d="M39.5 41.375C44.6777 41.375 48.875 37.1777 48.875 32C48.875 26.8223 44.6777 22.625 39.5 22.625C34.3223 22.625 30.125 26.8223 30.125 32C30.125 37.1777 34.3223 41.375 39.5 41.375Z" stroke="#A198D7" stroke-width="3" stroke-linecap="round" stroke-linejoin="round"/>
<path d="M54.501 56.375C54.501 52.3968 52.9206 48.5814 50.1076 45.7684C47.2945 42.9554 43.4792 41.375 39.501 41.375C35.5227 41.375 31.7074 42.9554 28.8944 45.7684C26.0813 48.5814 24.501 52.3968 24.501 56.375" stroke="#A198D7" stroke-width="3" stroke-linecap="round" stroke-linejoin="round"/>
</svg>
