<svg width="85" height="89" viewBox="0 0 85 89" fill="none" xmlns="http://www.w3.org/2000/svg">
<path d="M11.28 84V72.48H12.952V82.424H18.168V84H11.28ZM23.2783 84.24C22.4143 84.24 21.6649 84.0453 21.0303 83.656C20.3956 83.2667 19.9049 82.7307 19.5583 82.048C19.2169 81.36 19.0463 80.568 19.0463 79.672C19.0463 78.7707 19.2223 77.9787 19.5743 77.296C19.9263 76.608 20.4196 76.0747 21.0543 75.696C21.6889 75.312 22.4303 75.12 23.2783 75.12C24.1423 75.12 24.8916 75.3147 25.5263 75.704C26.1609 76.0933 26.6516 76.6293 26.9983 77.312C27.3449 77.9947 27.5183 78.7813 27.5183 79.672C27.5183 80.5733 27.3423 81.368 26.9903 82.056C26.6436 82.7387 26.1529 83.2747 25.5183 83.664C24.8836 84.048 24.1369 84.24 23.2783 84.24ZM23.2783 82.664C24.1049 82.664 24.7209 82.3867 25.1263 81.832C25.5369 81.272 25.7423 80.552 25.7423 79.672C25.7423 78.7707 25.5343 78.0507 25.1183 77.512C24.7076 76.968 24.0943 76.696 23.2783 76.696C22.7183 76.696 22.2569 76.824 21.8943 77.08C21.5316 77.3307 21.2623 77.68 21.0863 78.128C20.9103 78.5707 20.8223 79.0853 20.8223 79.672C20.8223 80.5787 21.0303 81.304 21.4463 81.848C21.8623 82.392 22.4729 82.664 23.2783 82.664ZM31.7163 84.24C31.0763 84.24 30.5403 84.1227 30.1083 83.888C29.6763 83.648 29.3483 83.3333 29.1243 82.944C28.9056 82.5493 28.7963 82.1173 28.7963 81.648C28.7963 81.2107 28.8736 80.8267 29.0283 80.496C29.1829 80.1653 29.4123 79.8853 29.7163 79.656C30.0203 79.4213 30.3936 79.232 30.8363 79.088C31.2203 78.976 31.6549 78.8773 32.1403 78.792C32.6256 78.7067 33.1349 78.6267 33.6683 78.552C34.2069 78.4773 34.7403 78.4027 35.2683 78.328L34.6603 78.664C34.6709 77.9867 34.5269 77.4853 34.2283 77.16C33.9349 76.8293 33.4283 76.664 32.7083 76.664C32.2549 76.664 31.8389 76.7707 31.4603 76.984C31.0816 77.192 30.8176 77.5387 30.6683 78.024L29.1083 77.544C29.3216 76.8027 29.7269 76.2133 30.3243 75.776C30.9269 75.3387 31.7269 75.12 32.7243 75.12C33.4976 75.12 34.1696 75.2533 34.7403 75.52C35.3163 75.7813 35.7376 76.1973 36.0043 76.768C36.1429 77.0507 36.2283 77.3493 36.2603 77.664C36.2923 77.9787 36.3083 78.3173 36.3083 78.68V84H34.8283V82.024L35.1163 82.28C34.7589 82.9413 34.3029 83.4347 33.7483 83.76C33.1989 84.08 32.5216 84.24 31.7163 84.24ZM32.0123 82.872C32.4869 82.872 32.8949 82.7893 33.2363 82.624C33.5776 82.4533 33.8523 82.2373 34.0603 81.976C34.2683 81.7147 34.4043 81.4427 34.4683 81.16C34.5589 80.904 34.6096 80.616 34.6203 80.296C34.6363 79.976 34.6443 79.72 34.6443 79.528L35.1883 79.728C34.6603 79.808 34.1803 79.88 33.7483 79.944C33.3163 80.008 32.9243 80.072 32.5723 80.136C32.2256 80.1947 31.9163 80.2667 31.6443 80.352C31.4149 80.432 31.2096 80.528 31.0283 80.64C30.8523 80.752 30.7109 80.888 30.6043 81.048C30.5029 81.208 30.4523 81.4027 30.4523 81.632C30.4523 81.856 30.5083 82.064 30.6203 82.256C30.7323 82.4427 30.9029 82.592 31.1323 82.704C31.3616 82.816 31.6549 82.872 32.0123 82.872ZM41.8176 84.24C41.0123 84.24 40.3163 84.04 39.7296 83.64C39.1483 83.24 38.6976 82.696 38.3776 82.008C38.063 81.3147 37.9056 80.536 37.9056 79.672C37.9056 78.8027 38.0656 78.0267 38.3856 77.344C38.7056 76.656 39.159 76.1147 39.7456 75.72C40.3376 75.32 41.039 75.12 41.8496 75.12C42.6656 75.12 43.351 75.32 43.9056 75.72C44.4656 76.1147 44.887 76.656 45.1696 77.344C45.4576 78.032 45.6016 78.808 45.6016 79.672C45.6016 80.536 45.4576 81.312 45.1696 82C44.8816 82.688 44.4576 83.2347 43.8976 83.64C43.3376 84.04 42.6443 84.24 41.8176 84.24ZM42.0496 82.728C42.599 82.728 43.047 82.5973 43.3936 82.336C43.7403 82.0747 43.9936 81.7147 44.1536 81.256C44.3136 80.7973 44.3936 80.2693 44.3936 79.672C44.3936 79.0747 44.311 78.5467 44.1456 78.088C43.9856 77.6293 43.735 77.272 43.3936 77.016C43.0576 76.76 42.6283 76.632 42.1056 76.632C41.551 76.632 41.095 76.768 40.7376 77.04C40.3803 77.312 40.1136 77.6773 39.9376 78.136C39.767 78.5947 39.6816 79.1067 39.6816 79.672C39.6816 80.2427 39.767 80.76 39.9376 81.224C40.1136 81.6827 40.375 82.048 40.7216 82.32C41.0736 82.592 41.5163 82.728 42.0496 82.728ZM44.3936 84V77.784H44.2016V72.48H45.8816V84H44.3936ZM48.28 73.944V72.32H49.952V73.944H48.28ZM48.28 84V75.36H49.952V84H48.28ZM58.4184 84V79.752C58.4184 79.416 58.389 79.072 58.3304 78.72C58.277 78.3627 58.1704 78.032 58.0104 77.728C57.8557 77.424 57.6344 77.1787 57.3464 76.992C57.0637 76.8053 56.693 76.712 56.2344 76.712C55.9357 76.712 55.653 76.7627 55.3864 76.864C55.1197 76.96 54.885 77.1173 54.6824 77.336C54.485 77.5547 54.3277 77.8427 54.2104 78.2C54.0984 78.5573 54.0424 78.992 54.0424 79.504L53.0024 79.112C53.0024 78.328 53.149 77.6373 53.4424 77.04C53.7357 76.4373 54.157 75.968 54.7064 75.632C55.2557 75.296 55.9197 75.128 56.6984 75.128C57.2957 75.128 57.797 75.224 58.2024 75.416C58.6077 75.608 58.9357 75.8613 59.1864 76.176C59.4424 76.4853 59.637 76.824 59.7704 77.192C59.9037 77.56 59.9944 77.92 60.0424 78.272C60.0904 78.624 60.1144 78.9333 60.1144 79.2V84H58.4184ZM52.3464 84V75.36H53.8424V77.856H54.0424V84H52.3464ZM65.7581 88.08C65.2941 88.08 64.8435 88.008 64.4061 87.864C63.9741 87.72 63.5795 87.5067 63.2221 87.224C62.8648 86.9467 62.5688 86.6027 62.3341 86.192L63.8781 85.408C64.0648 85.776 64.3315 86.0453 64.6781 86.216C65.0248 86.3867 65.3901 86.472 65.7741 86.472C66.2488 86.472 66.6541 86.3867 66.9901 86.216C67.3261 86.0507 67.5795 85.8 67.7501 85.464C67.9261 85.128 68.0115 84.712 68.0061 84.216V81.8H68.2061V75.36H69.6861V84.232C69.6861 84.4613 69.6781 84.68 69.6621 84.888C69.6461 85.096 69.6168 85.304 69.5741 85.512C69.4515 86.0933 69.2168 86.5733 68.8701 86.952C68.5288 87.3307 68.0915 87.6133 67.5581 87.8C67.0301 87.9867 66.4301 88.08 65.7581 88.08ZM65.6301 84.24C64.8248 84.24 64.1288 84.04 63.5421 83.64C62.9608 83.24 62.5101 82.696 62.1901 82.008C61.8755 81.3147 61.7181 80.536 61.7181 79.672C61.7181 78.8027 61.8781 78.0267 62.1981 77.344C62.5181 76.656 62.9715 76.1147 63.5581 75.72C64.1501 75.32 64.8515 75.12 65.6621 75.12C66.4781 75.12 67.1635 75.32 67.7181 75.72C68.2781 76.1147 68.6995 76.656 68.9821 77.344C69.2701 78.032 69.4141 78.808 69.4141 79.672C69.4141 80.536 69.2701 81.312 68.9821 82C68.6941 82.688 68.2701 83.2347 67.7101 83.64C67.1501 84.04 66.4568 84.24 65.6301 84.24ZM65.8621 82.728C66.4115 82.728 66.8595 82.5973 67.2061 82.336C67.5528 82.0747 67.8061 81.7147 67.9661 81.256C68.1261 80.7973 68.2061 80.2693 68.2061 79.672C68.2061 79.0747 68.1235 78.5467 67.9581 78.088C67.7981 77.6293 67.5475 77.272 67.2061 77.016C66.8701 76.76 66.4408 76.632 65.9181 76.632C65.3635 76.632 64.9075 76.768 64.5501 77.04C64.1928 77.312 63.9261 77.6773 63.7501 78.136C63.5795 78.5947 63.4941 79.1067 63.4941 79.672C63.4941 80.2427 63.5795 80.76 63.7501 81.224C63.9261 81.6827 64.1875 82.048 64.5341 82.32C64.8861 82.592 65.3288 82.728 65.8621 82.728ZM72.2205 84V82.232H73.9885V84H72.2205ZM76.7986 84V82.232H78.5666V84H76.7986ZM81.3768 84V82.232H83.1448V84H81.3768Z" fill="#535353"/>
<path fill-rule="evenodd" clip-rule="evenodd" d="M52.3525 23.0049C56.7331 23.116 60.562 25.4381 62.7715 28.8955C63.0543 28.7469 63.3516 28.667 63.6592 28.667C65.5039 28.667 67 31.5205 67 35.041C67 38.5616 65.5039 41.416 63.6592 41.416C63.5892 41.416 63.5201 41.4095 63.4512 41.4014C62.2043 43.9164 60.1538 45.9629 57.6328 47.2002L60.5566 56.999L53.1318 48.4502C52.8743 48.4724 52.6143 48.4885 52.3525 48.4951L52.0234 48.499H28.5322C23.4707 48.4988 19.0986 45.5485 17.04 41.2744C16.8142 41.3664 16.58 41.416 16.3398 41.416C14.4953 41.4157 13 38.5614 13 35.041C13 31.5207 14.4953 28.6673 16.3398 28.667C16.7935 28.667 17.2258 28.8397 17.6201 29.1523C19.8544 25.4647 23.9058 23.0002 28.5322 23H52.0234L52.3525 23.0049ZM28.5322 28.667C24.6206 28.6673 21.4493 31.8384 21.4492 35.75C21.4495 39.6615 24.6207 42.8327 28.5322 42.833H52.0234C55.935 42.8328 59.1062 39.6615 59.1064 35.75C59.1063 31.8383 55.9351 28.6672 52.0234 28.667H28.5322Z" fill="url(#paint0_linear_422_904)"/>
<circle cx="3.36978" cy="3.36978" r="3.36978" transform="matrix(1 0 0 -1 29 38.7405)" fill="url(#paint1_linear_422_904)"/>
<circle cx="3.36978" cy="3.36978" r="3.36978" transform="matrix(1 0 0 -1 44.9131 38.7405)" fill="url(#paint2_linear_422_904)"/>
<defs>
<linearGradient id="paint0_linear_422_904" x1="13" y1="23" x2="66.4163" y2="56.1436" gradientUnits="userSpaceOnUse">
<stop stop-color="#00BCC9"/>
<stop offset="0.5" stop-color="#4C36E4"/>
<stop offset="1" stop-color="#CF20AE"/>
</linearGradient>
<linearGradient id="paint1_linear_422_904" x1="1.69501e-07" y1="6.7395" x2="7" y2="-0.260498" gradientUnits="userSpaceOnUse">
<stop stop-color="#227ED5"/>
<stop offset="0.5" stop-color="#3857DD"/>
<stop offset="1" stop-color="#404ADF"/>
</linearGradient>
<linearGradient id="paint2_linear_422_904" x1="0.0869142" y1="6.7395" x2="7.08691" y2="-0.260498" gradientUnits="userSpaceOnUse">
<stop stop-color="#4246E0"/>
<stop offset="0.5" stop-color="#702FD4"/>
<stop offset="1" stop-color="#8A2BCA"/>
</linearGradient>
</defs>
</svg>
