<svg width="108" height="107" viewBox="0 0 108 107" fill="none" xmlns="http://www.w3.org/2000/svg">
<ellipse cx="54" cy="53.5" rx="54" ry="53.5" fill="url(#paint0_linear_1178_1101)" fill-opacity="0.3"/>
<path d="M54.0172 98.2697C78.7727 98.2697 98.841 78.326 98.841 53.7242C98.841 29.1224 78.7727 9.17871 54.0172 9.17871C29.2617 9.17871 9.19336 29.1224 9.19336 53.7242C9.19336 78.326 29.2617 98.2697 54.0172 98.2697Z" fill="url(#paint1_linear_1178_1101)"/>
<path d="M49.4924 68.9993C48.8595 68.9992 48.2353 68.8791 47.6691 68.6485C47.103 68.4178 46.6103 68.0829 46.23 67.6703L36.231 56.8077C35.6271 56.1 35.3837 55.2288 35.5521 54.3775C35.7204 53.5263 36.2873 52.7617 37.1333 52.2447C37.9793 51.7277 39.0383 51.4988 40.0872 51.6063C41.1361 51.7137 42.0929 52.1491 42.7559 52.8206L49.2994 59.9281L66.1051 39.3895C66.7211 38.6882 67.6469 38.2095 68.6873 38.0543C69.7277 37.8991 70.8013 38.0796 71.6816 38.5577C72.562 39.0358 73.1802 39.7741 73.406 40.6169C73.6317 41.4597 73.4473 42.341 72.8916 43.075L52.8884 67.5213C52.5262 67.9635 52.0394 68.3285 51.4686 68.5858C50.8979 68.8431 50.26 68.9851 49.6082 69L49.4924 68.9993Z" fill="white"/>
<path d="M85.8503 37.051C86.4041 37.051 86.853 36.6049 86.853 36.0546C86.853 35.5042 86.4041 35.0581 85.8503 35.0581C85.2966 35.0581 84.8477 35.5042 84.8477 36.0546C84.8477 36.6049 85.2966 37.051 85.8503 37.051Z" fill="white" fill-opacity="0.2"/>
<path d="M90.3621 49.8371C90.9158 49.8371 91.3647 49.391 91.3647 48.8407C91.3647 48.2904 90.9158 47.8442 90.3621 47.8442C89.8083 47.8442 89.3594 48.2904 89.3594 48.8407C89.3594 49.391 89.8083 49.8371 90.3621 49.8371Z" fill="white" fill-opacity="0.2"/>
<path d="M61.5027 19.9929C62.0564 19.9929 62.5054 19.5468 62.5054 18.9964C62.5054 18.4461 62.0564 18 61.5027 18C60.9489 18 60.5 18.4461 60.5 18.9964C60.5 19.5468 60.9489 19.9929 61.5027 19.9929Z" fill="white" fill-opacity="0.2"/>
<path d="M19.5144 40.5378C20.0682 40.5378 20.5171 40.0917 20.5171 39.5414C20.5171 38.991 20.0682 38.5449 19.5144 38.5449C18.9606 38.5449 18.5117 38.991 18.5117 39.5414C18.5117 40.0917 18.9606 40.5378 19.5144 40.5378Z" fill="white" fill-opacity="0.2"/>
<path d="M30.5163 49.801C31.0701 49.801 31.519 49.3549 31.519 48.8046C31.519 48.2542 31.0701 47.8081 30.5163 47.8081C29.9626 47.8081 29.5137 48.2542 29.5137 48.8046C29.5137 49.3549 29.9626 49.801 30.5163 49.801Z" fill="white" fill-opacity="0.2"/>
<path d="M19.5144 74.7458C20.0682 74.7458 20.5171 74.2997 20.5171 73.7494C20.5171 73.1991 20.0682 72.7529 19.5144 72.7529C18.9606 72.7529 18.5117 73.1991 18.5117 73.7494C18.5117 74.2997 18.9606 74.7458 19.5144 74.7458Z" fill="white" fill-opacity="0.2"/>
<path d="M85.6843 74.7458C86.2381 74.7458 86.687 74.2997 86.687 73.7494C86.687 73.1991 86.2381 72.7529 85.6843 72.7529C85.1306 72.7529 84.6816 73.1991 84.6816 73.7494C84.6816 74.2997 85.1306 74.7458 85.6843 74.7458Z" fill="white" fill-opacity="0.2"/>
<path d="M75.6843 49.801C76.2381 49.801 76.687 49.3549 76.687 48.8046C76.687 48.2542 76.2381 47.8081 75.6843 47.8081C75.1306 47.8081 74.6816 48.2542 74.6816 48.8046C74.6816 49.3549 75.1306 49.801 75.6843 49.801Z" fill="white" fill-opacity="0.2"/>
<defs>
<linearGradient id="paint0_linear_1178_1101" x1="0.105234" y1="-0.0149869" x2="127.149" y2="112.79" gradientUnits="userSpaceOnUse">
<stop stop-color="#80DCE4"/>
<stop offset="0.5" stop-color="#AB9AEF"/>
<stop offset="1" stop-color="#E78FD6"/>
</linearGradient>
<linearGradient id="paint1_linear_1178_1101" x1="17" y1="9" x2="101.5" y2="102" gradientUnits="userSpaceOnUse">
<stop stop-color="#01BBC9"/>
<stop offset="0.5" stop-color="#4C36E4"/>
<stop offset="1" stop-color="#CF20AE"/>
</linearGradient>
</defs>
</svg>
