<svg width="138" height="24" viewBox="0 0 138 24" fill="none" xmlns="http://www.w3.org/2000/svg">
<rect x="98" width="40" height="24" rx="12" fill="url(#paint0_linear_161_2162)"/>
<line x1="107" y1="8.00049" x2="107" y2="15.1926" stroke="white" stroke-width="2" stroke-linecap="round"/>
<circle cx="1.2" cy="1.2" r="1.2" transform="matrix(1 0 0 -1 116.4 12.4631)" fill="white"/>
<circle cx="1.2" cy="1.2" r="1.2" transform="matrix(1 0 0 -1 122.117 12.4631)" fill="white"/>
<path d="M124.467 7C126.952 7 128.967 9.01475 128.967 11.5C128.967 13.2901 127.922 14.8357 126.408 15.5605L127.452 19L124.788 15.9863C124.682 15.9938 124.575 16 124.467 16H115.867C113.382 15.9999 111.367 13.9853 111.367 11.5C111.367 9.01481 113.382 7.0001 115.867 7H124.467ZM115.867 9C114.487 9.0001 113.367 10.1194 113.367 11.5C113.367 12.8807 114.486 13.9999 115.867 14H124.467C125.848 14 126.967 12.8808 126.967 11.5C126.967 10.1193 125.848 9 124.467 9H115.867Z" fill="white"/>
<ellipse cx="128.8" cy="11.5001" rx="1.2" ry="2.25009" fill="white"/>
<ellipse cx="111.2" cy="11.5001" rx="1.2" ry="2.25009" fill="white"/>
<path d="M10.0367 5.4102C11.1389 5.4102 12.1242 6.0448 12.5751 7.0468L17.0006 17H14.4622L13.4435 14.6787H4.2418L3.2064 17H0.668L2.004 14.0107C2.4549 13.0087 3.4402 12.3741 4.5257 12.3741H12.4081L10.521 8.1323C10.4041 7.8818 10.1536 7.7315 9.8864 7.7315H7.7822C7.515 7.7315 7.2645 7.8818 7.1643 8.1323L6.0287 10.6707H3.4903L5.1102 7.0468C5.5444 6.0448 6.5464 5.4102 7.6319 5.4102H10.0367ZM29.5217 9.6019C34.9993 9.6019 35.016 17.0167 29.5217 17.0167H18.0321V14.6954H29.5217C31.4255 14.6954 31.3754 11.9232 29.5217 11.9232H21.2385C16.2953 11.9232 16.312 5.4269 21.2385 5.4269H32.4609V7.7482H21.2385C19.9359 7.7482 19.8858 9.6019 21.2385 9.6019H29.5217ZM46.9719 9.6019C52.4495 9.6019 52.4662 17.0167 46.9719 17.0167H35.4823V14.6954H46.9719C48.8757 14.6954 48.8256 11.9232 46.9719 11.9232H38.6887C33.7455 11.9232 33.7622 5.4269 38.6887 5.4269H49.9111V7.7482H38.6887C37.3861 7.7482 37.336 9.6019 38.6887 9.6019H46.9719ZM52.4315 5.4269H59.2451V7.7482H57.1409V14.6954H59.2451V17.0167H52.4315V14.6954H54.5524V7.7482H52.4315V5.4269ZM72.5764 9.6019C78.054 9.6019 78.0707 17.0167 72.5764 17.0167H61.0868V14.6954H72.5764C74.4802 14.6954 74.4301 11.9232 72.5764 11.9232H64.2932C59.35 11.9232 59.3667 5.4269 64.2932 5.4269H75.5156V7.7482H64.2932C62.9906 7.7482 62.9405 9.6019 64.2932 9.6019H72.5764ZM77.0411 5.4102H90.351V7.7148H84.9903V17.0167H82.4018V7.7148H77.0411V5.4102Z" fill="url(#paint1_linear_161_2162)"/>
<defs>
<linearGradient id="paint0_linear_161_2162" x1="98" y1="0" x2="139.514" y2="21.0078" gradientUnits="userSpaceOnUse">
<stop stop-color="#00BCC9"/>
<stop offset="0.5" stop-color="#4C36E4"/>
<stop offset="1" stop-color="#CF20AE"/>
</linearGradient>
<linearGradient id="paint1_linear_161_2162" x1="0" y1="3" x2="91.6648" y2="22.5701" gradientUnits="userSpaceOnUse">
<stop stop-color="#00BCC9"/>
<stop offset="0.5" stop-color="#4C36E4"/>
<stop offset="1" stop-color="#CF20AE"/>
</linearGradient>
</defs>
</svg>
