<svg width="46" height="46" viewBox="0 0 46 46" fill="none" xmlns="http://www.w3.org/2000/svg">
<ellipse cx="23" cy="22.787" rx="23" ry="22.787" fill="url(#paint0_linear_1482_943)" fill-opacity="0.3"/>
<path d="M23.0077 41.8553C33.5517 41.8553 42.0993 33.3608 42.0993 22.8822C42.0993 12.4037 33.5517 3.90918 23.0077 3.90918C12.4636 3.90918 3.91602 12.4037 3.91602 22.8822C3.91602 33.3608 12.4636 41.8553 23.0077 41.8553Z" fill="url(#paint1_linear_1482_943)"/>
<path d="M33.9173 24.5415V17.2498C33.9173 16.6973 33.6978 16.1674 33.3071 15.7767C32.9164 15.386 32.3865 15.1665 31.834 15.1665H15.1673C14.6148 15.1665 14.0849 15.386 13.6942 15.7767C13.3035 16.1674 13.084 16.6973 13.084 17.2498V29.7498C13.084 30.8957 14.0215 31.8332 15.1673 31.8332H23.5007" stroke="white" stroke-width="2" stroke-linecap="round" stroke-linejoin="round"/>
<path d="M33.9173 18.2915L24.5736 24.229C24.252 24.4305 23.8801 24.5373 23.5007 24.5373C23.1212 24.5373 22.7493 24.4305 22.4277 24.229L13.084 18.2915" stroke="white" stroke-width="2" stroke-linecap="round" stroke-linejoin="round"/>
<path d="M27.666 30.7918L29.7493 32.8752L33.916 28.7085" stroke="white" stroke-width="2" stroke-linecap="round" stroke-linejoin="round"/>
<path d="M36.5657 15.7814C36.8016 15.7814 36.9928 15.5914 36.9928 15.357C36.9928 15.1226 36.8016 14.9326 36.5657 14.9326C36.3299 14.9326 36.1387 15.1226 36.1387 15.357C36.1387 15.5914 36.3299 15.7814 36.5657 15.7814Z" fill="white" fill-opacity="0.2"/>
<path d="M38.4876 21.2268C38.7235 21.2268 38.9147 21.0367 38.9147 20.8023C38.9147 20.5679 38.7235 20.3779 38.4876 20.3779C38.2518 20.3779 38.0605 20.5679 38.0605 20.8023C38.0605 21.0367 38.2518 21.2268 38.4876 21.2268Z" fill="white" fill-opacity="0.2"/>
<path d="M26.1946 8.51533C26.4305 8.51533 26.6217 8.32532 26.6217 8.09092C26.6217 7.85652 26.4305 7.6665 26.1946 7.6665C25.9588 7.6665 25.7676 7.85652 25.7676 8.09092C25.7676 8.32532 25.9588 8.51533 26.1946 8.51533Z" fill="white" fill-opacity="0.2"/>
<path d="M8.31183 17.2658C8.54769 17.2658 8.7389 17.0758 8.7389 16.8414C8.7389 16.607 8.54769 16.417 8.31183 16.417C8.07597 16.417 7.88477 16.607 7.88477 16.8414C7.88477 17.0758 8.07597 17.2658 8.31183 17.2658Z" fill="white" fill-opacity="0.2"/>
<path d="M12.9974 21.2116C13.2332 21.2116 13.4244 21.0216 13.4244 20.7872C13.4244 20.5528 13.2332 20.3628 12.9974 20.3628C12.7615 20.3628 12.5703 20.5528 12.5703 20.7872C12.5703 21.0216 12.7615 21.2116 12.9974 21.2116Z" fill="white" fill-opacity="0.2"/>
<path d="M8.31183 31.8366C8.54769 31.8366 8.7389 31.6466 8.7389 31.4122C8.7389 31.1778 8.54769 30.9878 8.31183 30.9878C8.07597 30.9878 7.88477 31.1778 7.88477 31.4122C7.88477 31.6466 8.07597 31.8366 8.31183 31.8366Z" fill="white" fill-opacity="0.2"/>
<path d="M36.4935 31.8366C36.7293 31.8366 36.9205 31.6466 36.9205 31.4122C36.9205 31.1778 36.7293 30.9878 36.4935 30.9878C36.2576 30.9878 36.0664 31.1778 36.0664 31.4122C36.0664 31.6466 36.2576 31.8366 36.4935 31.8366Z" fill="white" fill-opacity="0.2"/>
<path d="M32.2357 21.2116C32.4715 21.2116 32.6627 21.0216 32.6627 20.7872C32.6627 20.5528 32.4715 20.3628 32.2357 20.3628C31.9998 20.3628 31.8086 20.5528 31.8086 20.7872C31.8086 21.0216 31.9998 21.2116 32.2357 21.2116Z" fill="white" fill-opacity="0.2"/>
<defs>
<linearGradient id="paint0_linear_1482_943" x1="0.044822" y1="-0.0063833" x2="54.1562" y2="48.0402" gradientUnits="userSpaceOnUse">
<stop stop-color="#80DCE4"/>
<stop offset="0.5" stop-color="#AB9AEF"/>
<stop offset="1" stop-color="#E78FD6"/>
</linearGradient>
<linearGradient id="paint1_linear_1482_943" x1="7.24107" y1="3.83306" x2="43.2318" y2="43.4442" gradientUnits="userSpaceOnUse">
<stop stop-color="#01BBC9"/>
<stop offset="0.5" stop-color="#4C36E4"/>
<stop offset="1" stop-color="#CF20AE"/>
</linearGradient>
</defs>
</svg>
