<svg width="46" height="46" viewBox="0 0 46 46" fill="none" xmlns="http://www.w3.org/2000/svg">
<ellipse cx="23" cy="22.787" rx="23" ry="22.787" fill="url(#paint0_linear_1482_1523)" fill-opacity="0.3"/>
<path d="M23.0077 41.8553C33.5517 41.8553 42.0993 33.3608 42.0993 22.8822C42.0993 12.4037 33.5517 3.90918 23.0077 3.90918C12.4636 3.90918 3.91602 12.4037 3.91602 22.8822C3.91602 33.3608 12.4636 41.8553 23.0077 41.8553Z" fill="url(#paint1_linear_1482_1523)"/>
<path d="M13.9043 32.8915C13.9042 31.163 14.4029 29.4711 15.3406 28.019C16.2782 26.5669 17.615 25.4162 19.1905 24.705C20.7659 23.9939 22.5132 23.7524 24.2225 24.0097C25.9317 24.267 27.5305 25.0121 28.8268 26.1555" stroke="white" stroke-width="2" stroke-linecap="round" stroke-linejoin="round"/>
<path d="M22.8848 23.9103C25.985 23.9103 28.4981 21.3971 28.4981 18.2969C28.4981 15.1968 25.985 12.6836 22.8848 12.6836C19.7847 12.6836 17.2715 15.1968 17.2715 18.2969C17.2715 21.3971 19.7847 23.9103 22.8848 23.9103Z" stroke="white" stroke-width="2" stroke-linecap="round" stroke-linejoin="round"/>
<path d="M32.9883 27.2783V34.0143" stroke="white" stroke-width="2" stroke-linecap="round" stroke-linejoin="round"/>
<path d="M36.3571 30.646H29.6211" stroke="white" stroke-width="2" stroke-linecap="round" stroke-linejoin="round"/>
<path d="M36.5657 15.7814C36.8016 15.7814 36.9928 15.5914 36.9928 15.357C36.9928 15.1226 36.8016 14.9326 36.5657 14.9326C36.3299 14.9326 36.1387 15.1226 36.1387 15.357C36.1387 15.5914 36.3299 15.7814 36.5657 15.7814Z" fill="white" fill-opacity="0.2"/>
<path d="M38.4876 21.2268C38.7235 21.2268 38.9147 21.0367 38.9147 20.8023C38.9147 20.5679 38.7235 20.3779 38.4876 20.3779C38.2518 20.3779 38.0605 20.5679 38.0605 20.8023C38.0605 21.0367 38.2518 21.2268 38.4876 21.2268Z" fill="white" fill-opacity="0.2"/>
<path d="M26.1946 8.51533C26.4305 8.51533 26.6217 8.32532 26.6217 8.09092C26.6217 7.85652 26.4305 7.6665 26.1946 7.6665C25.9588 7.6665 25.7676 7.85652 25.7676 8.09092C25.7676 8.32532 25.9588 8.51533 26.1946 8.51533Z" fill="white" fill-opacity="0.2"/>
<path d="M8.31183 17.2658C8.54769 17.2658 8.7389 17.0758 8.7389 16.8414C8.7389 16.607 8.54769 16.417 8.31183 16.417C8.07597 16.417 7.88477 16.607 7.88477 16.8414C7.88477 17.0758 8.07597 17.2658 8.31183 17.2658Z" fill="white" fill-opacity="0.2"/>
<path d="M12.9974 21.2116C13.2332 21.2116 13.4244 21.0216 13.4244 20.7872C13.4244 20.5528 13.2332 20.3628 12.9974 20.3628C12.7615 20.3628 12.5703 20.5528 12.5703 20.7872C12.5703 21.0216 12.7615 21.2116 12.9974 21.2116Z" fill="white" fill-opacity="0.2"/>
<path d="M8.31183 31.8366C8.54769 31.8366 8.7389 31.6466 8.7389 31.4122C8.7389 31.1778 8.54769 30.9878 8.31183 30.9878C8.07597 30.9878 7.88477 31.1778 7.88477 31.4122C7.88477 31.6466 8.07597 31.8366 8.31183 31.8366Z" fill="white" fill-opacity="0.2"/>
<path d="M36.4935 31.8366C36.7293 31.8366 36.9205 31.6466 36.9205 31.4122C36.9205 31.1778 36.7293 30.9878 36.4935 30.9878C36.2576 30.9878 36.0664 31.1778 36.0664 31.4122C36.0664 31.6466 36.2576 31.8366 36.4935 31.8366Z" fill="white" fill-opacity="0.2"/>
<path d="M32.2357 21.2116C32.4715 21.2116 32.6627 21.0216 32.6627 20.7872C32.6627 20.5528 32.4715 20.3628 32.2357 20.3628C31.9998 20.3628 31.8086 20.5528 31.8086 20.7872C31.8086 21.0216 31.9998 21.2116 32.2357 21.2116Z" fill="white" fill-opacity="0.2"/>
<defs>
<linearGradient id="paint0_linear_1482_1523" x1="0.044822" y1="-0.0063833" x2="54.1562" y2="48.0402" gradientUnits="userSpaceOnUse">
<stop stop-color="#80DCE4"/>
<stop offset="0.5" stop-color="#AB9AEF"/>
<stop offset="1" stop-color="#E78FD6"/>
</linearGradient>
<linearGradient id="paint1_linear_1482_1523" x1="7.24107" y1="3.83306" x2="43.2318" y2="43.4442" gradientUnits="userSpaceOnUse">
<stop stop-color="#01BBC9"/>
<stop offset="0.5" stop-color="#4C36E4"/>
<stop offset="1" stop-color="#CF20AE"/>
</linearGradient>
</defs>
</svg>
