<svg width="122" height="122" viewBox="0 0 122 122" fill="none" xmlns="http://www.w3.org/2000/svg">
<ellipse cx="60" cy="61.5" rx="54" ry="53.5" fill="url(#paint0_linear_1227_1490)" fill-opacity="0.3"/>
<path d="M60.0172 106.27C84.7727 106.27 104.841 86.326 104.841 61.7242C104.841 37.1224 84.7727 17.1787 60.0172 17.1787C35.2617 17.1787 15.1934 37.1224 15.1934 61.7242C15.1934 86.326 35.2617 106.27 60.0172 106.27Z" fill="url(#paint1_linear_1227_1490)"/>
<path d="M38.6406 85.2225C38.6404 81.1642 39.8113 77.1921 42.0128 73.7827C44.2142 70.3734 47.3527 67.6718 51.0517 66.0021C54.7506 64.3324 58.8528 63.7656 62.8659 64.3697C66.879 64.9737 70.6325 66.723 73.676 69.4076" stroke="white" stroke-width="5" stroke-linecap="round" stroke-linejoin="round"/>
<path d="M59.728 64.1361C67.0066 64.1361 72.9071 58.2356 72.9071 50.957C72.9071 43.6783 67.0066 37.7778 59.728 37.7778C52.4493 37.7778 46.5488 43.6783 46.5488 50.957C46.5488 58.2356 52.4493 64.1361 59.728 64.1361Z" stroke="white" stroke-width="5" stroke-linecap="round" stroke-linejoin="round"/>
<path d="M83.4492 72.0435V87.8584" stroke="white" stroke-width="5" stroke-linecap="round" stroke-linejoin="round"/>
<path d="M91.3579 79.9507H75.543" stroke="white" stroke-width="5" stroke-linecap="round" stroke-linejoin="round"/>
<path d="M91.8503 45.051C92.4041 45.051 92.853 44.6049 92.853 44.0546C92.853 43.5042 92.4041 43.0581 91.8503 43.0581C91.2966 43.0581 90.8477 43.5042 90.8477 44.0546C90.8477 44.6049 91.2966 45.051 91.8503 45.051Z" fill="white" fill-opacity="0.2"/>
<path d="M96.3621 57.8371C96.9158 57.8371 97.3647 57.391 97.3647 56.8407C97.3647 56.2904 96.9158 55.8442 96.3621 55.8442C95.8083 55.8442 95.3594 56.2904 95.3594 56.8407C95.3594 57.391 95.8083 57.8371 96.3621 57.8371Z" fill="white" fill-opacity="0.2"/>
<path d="M67.5027 27.9929C68.0564 27.9929 68.5054 27.5468 68.5054 26.9964C68.5054 26.4461 68.0564 26 67.5027 26C66.9489 26 66.5 26.4461 66.5 26.9964C66.5 27.5468 66.9489 27.9929 67.5027 27.9929Z" fill="white" fill-opacity="0.2"/>
<path d="M25.5144 48.5378C26.0682 48.5378 26.5171 48.0917 26.5171 47.5414C26.5171 46.991 26.0682 46.5449 25.5144 46.5449C24.9606 46.5449 24.5117 46.991 24.5117 47.5414C24.5117 48.0917 24.9606 48.5378 25.5144 48.5378Z" fill="white" fill-opacity="0.2"/>
<path d="M36.5163 57.801C37.0701 57.801 37.519 57.3549 37.519 56.8046C37.519 56.2542 37.0701 55.8081 36.5163 55.8081C35.9626 55.8081 35.5137 56.2542 35.5137 56.8046C35.5137 57.3549 35.9626 57.801 36.5163 57.801Z" fill="white" fill-opacity="0.2"/>
<path d="M25.5144 82.7458C26.0682 82.7458 26.5171 82.2997 26.5171 81.7494C26.5171 81.1991 26.0682 80.7529 25.5144 80.7529C24.9606 80.7529 24.5117 81.1991 24.5117 81.7494C24.5117 82.2997 24.9606 82.7458 25.5144 82.7458Z" fill="white" fill-opacity="0.2"/>
<path d="M91.6843 82.7458C92.2381 82.7458 92.687 82.2997 92.687 81.7494C92.687 81.1991 92.2381 80.7529 91.6843 80.7529C91.1306 80.7529 90.6816 81.1991 90.6816 81.7494C90.6816 82.2997 91.1306 82.7458 91.6843 82.7458Z" fill="white" fill-opacity="0.2"/>
<path d="M81.6843 57.801C82.2381 57.801 82.687 57.3549 82.687 56.8046C82.687 56.2542 82.2381 55.8081 81.6843 55.8081C81.1306 55.8081 80.6816 56.2542 80.6816 56.8046C80.6816 57.3549 81.1306 57.801 81.6843 57.801Z" fill="white" fill-opacity="0.2"/>
<defs>
<linearGradient id="paint0_linear_1227_1490" x1="6.10523" y1="7.98501" x2="133.149" y2="120.79" gradientUnits="userSpaceOnUse">
<stop stop-color="#80DCE4"/>
<stop offset="0.5" stop-color="#AB9AEF"/>
<stop offset="1" stop-color="#E78FD6"/>
</linearGradient>
<linearGradient id="paint1_linear_1227_1490" x1="23" y1="17" x2="107.5" y2="110" gradientUnits="userSpaceOnUse">
<stop stop-color="#01BBC9"/>
<stop offset="0.5" stop-color="#4C36E4"/>
<stop offset="1" stop-color="#CF20AE"/>
</linearGradient>
</defs>
</svg>
